{
    "asset" : {
        "generator" : "Khronos glTF Blender I/O v1.7.33",
        "version" : "2.0"
    },
    "scene" : 0,
    "scenes" : [
        {
            "name" : "Scene",
            "nodes" : [
                0
            ]
        }
    ],
    "nodes" : [
        {
            "mesh" : 0,
            "name" : " \u041c\u043e\u0434\u0438\u0444\u0438\u043a\u0430\u0442\u043e\u0440 [4116909]",
            "scale" : [
                0.30480000376701355,
                0.30480000376701355,
                0.30480000376701355
            ]
        }
    ],
    "meshes" : [
        {
            "name" : " \u041c\u043e\u0434\u0438\u0444\u0438\u043a\u0430\u0442\u043e\u0440 [4116909] Geometry",
            "primitives" : [
                {
                    "attributes" : {
                        "POSITION" : 0,
                        "NORMAL" : 1,
                        "TEXCOORD_0" : 2
                    },
                    "indices" : 3
                }
            ]
        }
    ],
    "accessors" : [
        {
            "bufferView" : 0,
            "componentType" : 5126,
            "count" : 406,
            "max" : [
                0.6916260719299316,
                0.0049212598241865635,
                0.1706036776304245
            ],
            "min" : [
                -0.7001228928565979,
                -0.04429133981466293,
                -0.497808575630188
            ],
            "type" : "VEC3"
        },
        {
            "bufferView" : 1,
            "componentType" : 5126,
            "count" : 406,
            "type" : "VEC3"
        },
        {
            "bufferView" : 2,
            "componentType" : 5126,
            "count" : 406,
            "type" : "VEC2"
        },
        {
            "bufferView" : 3,
            "componentType" : 5123,
            "count" : 1080,
            "type" : "SCALAR"
        }
    ],
    "bufferViews" : [
        {
            "buffer" : 0,
            "byteLength" : 4872,
            "byteOffset" : 0
        },
        {
            "buffer" : 0,
            "byteLength" : 4872,
            "byteOffset" : 4872
        },
        {
            "buffer" : 0,
            "byteLength" : 3248,
            "byteOffset" : 9744
        },
        {
            "buffer" : 0,
            "byteLength" : 2160,
            "byteOffset" : 12992
        }
    ],
    "buffers" : [
        {
            "byteLength" : 15152,
            "uri" : "data:application/octet-stream;base64,"
        }
    ]
}
